<svg width="48" height="48" viewBox="0 0 48 48" fill="none" xmlns="http://www.w3.org/2000/svg">
<path d="M15 12H12V18H15V12Z" fill="#141414"/>
<path d="M15 21H12V27H15V21Z" fill="#141414"/>
<path d="M24 12H21V18H24V12Z" fill="#141414"/>
<path d="M24 21H21V27H24V21Z" fill="#141414"/>
<path d="M15 30H12V36H15V30Z" fill="#141414"/>
<path d="M24 30H21V36H24V30Z" fill="#141414"/>
<path d="M45 33H32.745L36.615 36.885L34.5 39L27 31.5L34.5 24L36.615 26.115L32.745 30H45V33Z" fill="#141414"/>
<path d="M28.5 18H40.755L36.885 21.885L39 24L46.5 16.5L39 9L36.885 11.115L40.755 15H28.5V18Z" fill="#141414"/>
<path d="M42 39V42H6V6H30V9H33V6C33 5.20435 32.6839 4.44129 32.1213 3.87868C31.5587 3.31607 30.7956 3 30 3H6C5.20435 3 4.44129 3.31607 3.87868 3.87868C3.31607 4.44129 3 5.20435 3 6V45H45V39H42Z" fill="#141414"/>
</svg>
